<svg xmlns="http://www.w3.org/2000/svg" viewBox="0 0 720 460" role="img" aria-labelledby="title desc"><title id="title">Different sensors, different evidence</title><desc id="desc">Camera pixels describe appearance, lidar samples surfaces, and radar measures range and radial motion.</desc><defs><marker id="arrow" markerWidth="8" markerHeight="8" refX="7" refY="4" orient="auto"><path d="M0 0L8 4L0 8" fill="none" stroke="#475569"/></marker></defs><rect width="720" height="460" fill="white"/><g font-family="Arial, sans-serif"><text x="24" y="35" font-size="25" fill="#172033" text-anchor="start" font-weight="bold">Different sensors, different evidence</text><text x="25" y="87" font-size="24" fill="#172033" text-anchor="start" font-weight="bold">Camera</text><rect x="25" y="110" width="200" height="210" rx="6" fill="#f8fafc" stroke="#94a3b8" stroke-width="2"/><text x="260" y="87" font-size="24" fill="#172033" text-anchor="start" font-weight="bold">Lidar</text><rect x="260" y="110" width="200" height="210" rx="6" fill="#f8fafc" stroke="#94a3b8" stroke-width="2"/><text x="495" y="87" font-size="24" fill="#172033" text-anchor="start" font-weight="bold">Radar</text><rect x="495" y="110" width="200" height="210" rx="6" fill="#f8fafc" stroke="#94a3b8" stroke-width="2"/><rect x="65" y="175" width="115" height="65" rx="6" fill="#dbeafe" stroke="#2563eb" stroke-width="2"/><circle cx="85" cy="247" r="13" fill="#475569"/><circle cx="163" cy="247" r="13" fill="#475569"/><path d="M48 130L48 300" fill="none" stroke="#cbd5e1" stroke-width="1"/><path d="M68 130L68 300" fill="none" stroke="#cbd5e1" stroke-width="1"/><path d="M88 130L88 300" fill="none" stroke="#cbd5e1" stroke-width="1"/><path d="M108 130L108 300" fill="none" stroke="#cbd5e1" stroke-width="1"/><path d="M128 130L128 300" fill="none" stroke="#cbd5e1" stroke-width="1"/><path d="M148 130L148 300" fill="none" stroke="#cbd5e1" stroke-width="1"/><path d="M168 130L168 300" fill="none" stroke="#cbd5e1" stroke-width="1"/><path d="M188 130L188 300" fill="none" stroke="#cbd5e1" stroke-width="1"/><path d="M208 130L208 300" fill="none" stroke="#cbd5e1" stroke-width="1"/><path d="M45 130L208 130" fill="none" stroke="#cbd5e1" stroke-width="1"/><path d="M45 150L208 150" fill="none" stroke="#cbd5e1" stroke-width="1"/><path d="M45 170L208 170" fill="none" stroke="#cbd5e1" stroke-width="1"/><path d="M45 190L208 190" fill="none" stroke="#cbd5e1" stroke-width="1"/><path d="M45 210L208 210" fill="none" stroke="#cbd5e1" stroke-width="1"/><path d="M45 230L208 230" fill="none" stroke="#cbd5e1" stroke-width="1"/><path d="M45 250L208 250" fill="none" stroke="#cbd5e1" stroke-width="1"/><path d="M45 270L208 270" fill="none" stroke="#cbd5e1" stroke-width="1"/><path d="M45 290L208 290" fill="none" stroke="#cbd5e1" stroke-width="1"/><circle cx="290" cy="175" r="6" fill="#047857"/><circle cx="320" cy="171" r="6" fill="#047857"/><circle cx="350" cy="180" r="6" fill="#047857"/><circle cx="389" cy="185" r="6" fill="#047857"/><circle cx="411" cy="208" r="6" fill="#047857"/><circle cx="300" cy="225" r="6" fill="#047857"/><circle cx="335" cy="235" r="6" fill="#047857"/><circle cx="380" cy="236" r="6" fill="#047857"/><circle cx="410" cy="237" r="6" fill="#047857"/><circle cx="520" cy="271" r="10" fill="#475569"/><circle cx="653" cy="169" r="10" fill="#c2410c"/><path d="M530 262L643 177" fill="none" stroke="#475569" stroke-width="2" stroke-dasharray="7 5"/><path d="M625 190L590 218" fill="none" stroke="#475569" stroke-width="3" marker-end="url(#arrow)"/><text x="27" y="362" font-size="21" fill="#172033" text-anchor="start">Light and color</text><text x="260" y="362" font-size="21" fill="#172033" text-anchor="start">Surface positions</text><text x="495" y="362" font-size="21" fill="#172033" text-anchor="start">Range + radial</text><text x="495" y="389" font-size="21" fill="#172033" text-anchor="start">velocity</text><text x="25" y="435" font-size="19" fill="#172033" text-anchor="start">Schematic measurements; not a sensor specification.</text></g></svg>
